<svg width="192" height="192" viewBox="0 0 192 192" fill="none" xmlns="http://www.w3.org/2000/svg">
<path fill-rule="evenodd" clip-rule="evenodd" d="M98.561 21H93.439V35.3184C90.2494 36.3882 87.9512 39.4013 87.9512 42.9512C87.9512 46.5011 90.2494 49.5142 93.439 50.584V80.3184C90.2494 81.3882 87.9512 84.4013 87.9512 87.9512C87.9512 91.5011 90.2494 94.5143 93.439 95.584V148.001C90.2494 149.071 87.9512 152.084 87.9512 155.634C87.9512 159.184 90.2494 162.197 93.439 163.267V171H98.561V163.267C101.751 162.197 104.049 159.184 104.049 155.634C104.049 152.084 101.751 149.071 98.561 148.001V95.584C101.751 94.5142 104.049 91.5011 104.049 87.9512C104.049 84.4013 101.751 81.3882 98.561 80.3184V50.584C101.751 49.5142 104.049 46.5011 104.049 42.9512C104.049 39.4013 101.751 36.3882 98.561 35.3184V21Z" fill="url(#paint0_linear)"/>
<defs>
<linearGradient id="paint0_linear" x1="119.232" y1="21" x2="64.9024" y2="179.049" gradientUnits="userSpaceOnUse">
<stop stop-color="#A3B0D1"/>
<stop offset="1" stop-color="#505A76"/>
</linearGradient>
</defs>
</svg>
